<?xml version="1.0" encoding="iso-8859-1"?>
<!-- Uploaded to: SVG Repo, www.svgrepo.com, Generator: SVG Repo Mixer Tools -->
<!DOCTYPE svg PUBLIC "-//W3C//DTD SVG 1.1//EN" "http://www.w3.org/Graphics/SVG/1.1/DTD/svg11.dtd">
<svg fill="#000000" height="800px" width="800px" version="1.1" id="Capa_1" xmlns="http://www.w3.org/2000/svg" xmlns:xlink="http://www.w3.org/1999/xlink" 
	 viewBox="0 0 297 297" xml:space="preserve">
<path d="M3.114,293.982C5.126,295.994,7.764,297,10.401,297c2.64,0,5.277-1.007,7.291-3.022l107.579-107.635
	c-0.001,0.058-0.008,0.113-0.008,0.17c0,2.711,1.092,5.36,3.01,7.288c1.928,1.917,4.576,3.02,7.286,3.02
	c2.723,0,5.371-1.104,7.299-3.02c1.917-1.928,3.01-4.577,3.01-7.288c0-1.512-0.349-2.999-0.977-4.355
	c15.751,10.123,34.083,15.551,53.252,15.551c26.394,0,51.209-10.284,69.872-28.956c38.522-38.543,38.522-101.256,0-139.798
	C249.352,10.283,224.536,0,198.143,0c-26.395,0-51.208,10.283-69.87,28.955c-33.394,33.41-37.818,84.976-13.316,123.223
	c-1.375-0.654-2.889-1.019-4.423-1.019c-2.722,0-5.37,1.103-7.288,3.021c-1.928,1.917-3.02,4.576-3.02,7.287
	c0,2.711,1.092,5.37,3.02,7.287c1.918,1.918,4.566,3.02,7.288,3.02c0.055,0,0.106-0.007,0.161-0.008L3.11,279.405
	C-0.914,283.432-0.912,289.958,3.114,293.982z M142.854,43.529c14.768-14.776,34.404-22.915,55.289-22.915
	c20.886,0,40.521,8.139,55.29,22.915c30.491,30.506,30.491,80.143,0,110.65c-14.769,14.776-34.404,22.915-55.29,22.915
	c-17.904,0-34.881-5.999-48.669-17.016c11.576,5.793,24.618,9.074,38.415,9.08c0.012,0,0.027,0,0.041,0
	c18.96,0,36.779-7.38,50.185-20.787c13.421-13.422,20.806-31.274,20.794-50.268c-0.013-32.48-26.44-58.919-58.912-58.935
	c-0.011,0-0.023,0-0.033,0c-13.125,0-25.459,5.107-34.738,14.387c-9.292,9.292-14.404,21.652-14.396,34.805
	c0.008,22.827,18.586,41.412,41.413,41.425c0.008,0,0.015,0,0.021,0c9.391,0,18.218-3.655,24.858-10.298
	c6.648-6.646,10.307-15.488,10.302-24.894c-0.01-16.667-13.568-30.226-30.225-30.226c-5.692,0-10.308,4.615-10.308,10.308
	c0,5.692,4.615,10.308,10.308,10.308c5.296,0,9.605,4.316,9.609,9.622c0.002,3.895-1.513,7.554-4.264,10.306
	c-2.747,2.746-6.397,4.259-10.281,4.259c-0.003,0-0.006,0-0.009,0c-11.472-0.007-20.807-9.347-20.811-20.821
	c-0.005-7.643,2.964-14.821,8.357-20.216c5.384-5.384,12.545-8.349,20.163-8.349c0.008,0,0.014,0,0.02,0
	c21.116,0.01,38.3,17.205,38.309,38.33c0.009,13.484-5.231,26.156-14.756,35.682c-9.511,9.51-22.156,14.747-35.609,14.747
	c-0.011,0-0.02,0-0.029,0c-36.188-0.015-66.88-31.627-62.746-67.598C126.761,66.948,132.184,54.204,142.854,43.529z"/>
</svg>